# ProBuilder 5.0.6
# https://unity3d.com/unity/features/worldbuilding/probuilder
# 9/18/2022 10:15:09 AM

mtllib ./Barrel.mtl
o Barrel

g Cylinder (8)
v -17.98729 -42.35454 0
v -17.98729 42.35454 0
v -15.57745 -42.35454 9.477522
v -15.57745 42.35454 9.477522
v -8.993642 -42.35454 16.41555
v -8.993642 42.35454 16.41555
v 7.862492E-07 -42.35454 18.95504
v 7.862492E-07 42.35454 18.95504
v 8.993644 -42.35454 16.41555
v 8.993644 42.35454 16.41555
v 15.57745 -42.35454 9.477523
v 15.57745 42.35454 9.477523
v 17.98729 -42.35454 -1.657103E-06
v 17.98729 42.35454 -1.657103E-06
v 15.57745 -42.35454 -9.477521
v 15.57745 42.35454 -9.477521
v 8.993641 -42.35454 -16.41555
v 8.993641 42.35454 -16.41555
v -2.144962E-07 -42.35454 -18.95504
v -2.144962E-07 42.35454 -18.95504
v -8.993641 -42.35454 -16.41555
v -8.993641 42.35454 -16.41555
v -15.57745 -42.35454 -9.477526
v -15.57745 42.35454 -9.477526
v 0 -42.35454 0
v 0 42.35454 0

vt -4.432564 -42.35454
vt -4.432564 42.35454
vt 5.346534 -42.35454
vt 5.346534 42.35454
vt -3.847867 -42.35454
vt -3.847867 42.35454
vt 5.716793 -42.35454
vt 5.716793 42.35454
vt -4.194453 -42.35454
vt -4.194453 42.35454
vt 5.150847 -42.35454
vt 5.150847 42.35454
vt -5.15085 -42.35454
vt -5.15085 42.35454
vt 4.194451 -42.35454
vt 4.194451 42.35454
vt -5.716789 -42.35454
vt -5.716789 42.35454
vt 3.847867 -42.35454
vt 3.847867 42.35454
vt -5.346536 -42.35454
vt -5.346536 42.35454
vt 4.432564 -42.35454
vt 4.432564 42.35454
vt -17.98729 0
vt 0 0
vt -15.57745 9.477522
vt 17.98729 0
vt 15.57745 9.477522
vt -8.993642 16.41555
vt 8.993642 16.41555
vt 7.862492E-07 18.95504
vt 15.57745 -9.477521
vt -15.57745 -9.477521
vt 8.993641 -16.41555
vt -8.993641 -16.41555
vt -2.144962E-07 -18.95504

vn -1 0 0
vn -0.8756095 0 0.4830196
vn -0.5170447 0 0.8559584
vn 1.083867E-07 0 1
vn 0.5170448 0 0.8559584
vn 0.8756095 0 0.4830196
vn 1 0 -7.687659E-08
vn 0.8756095 0 -0.4830197
vn 0.5170447 0 -0.8559583
vn 0 0 -1
vn -0.5170446 0 -0.8559585
vn -0.8756095 0 -0.4830198
vn 0 -1 0
vn 0 1 0

usemtl Fuel_Tanks
f 1/25/13 25/26/13 3/27/13
f 3/27/13 25/26/13 5/30/13
f 5/30/13 25/26/13 7/32/13
f 7/32/13 25/26/13 9/31/13
f 9/31/13 25/26/13 11/29/13
f 11/29/13 25/26/13 13/28/13
f 13/28/13 25/26/13 15/33/13
f 15/33/13 25/26/13 17/35/13
f 17/35/13 25/26/13 19/37/13
f 19/37/13 25/26/13 21/36/13
f 21/36/13 25/26/13 23/34/13
f 23/34/13 25/26/13 1/25/13
f 4/29/14 26/26/14 2/28/14
f 6/31/14 26/26/14 4/29/14
f 8/32/14 26/26/14 6/31/14
f 10/30/14 26/26/14 8/32/14
f 12/27/14 26/26/14 10/30/14
f 14/25/14 26/26/14 12/27/14
f 16/34/14 26/26/14 14/25/14
f 18/36/14 26/26/14 16/34/14
f 20/37/14 26/26/14 18/36/14
f 22/35/14 26/26/14 20/37/14
f 24/33/14 26/26/14 22/35/14
f 2/28/14 26/26/14 24/33/14
f 4/4/2 2/2/1 1/1/1
f 1/1/1 3/3/2 4/4/2
f 6/8/3 4/6/2 3/5/2
f 3/5/2 5/7/3 6/8/3
f 8/12/4 6/10/3 5/9/3
f 5/9/3 7/11/4 8/12/4
f 10/16/5 8/14/4 7/13/4
f 7/13/4 9/15/5 10/16/5
f 12/20/6 10/18/5 9/17/5
f 9/17/5 11/19/6 12/20/6
f 14/24/7 12/22/6 11/21/6
f 11/21/6 13/23/7 14/24/7
f 16/4/8 14/2/7 13/1/7
f 13/1/7 15/3/8 16/4/8
f 18/8/9 16/6/8 15/5/8
f 15/5/8 17/7/9 18/8/9
f 20/12/10 18/10/9 17/9/9
f 17/9/9 19/11/10 20/12/10
f 22/16/11 20/14/10 19/13/10
f 19/13/10 21/15/11 22/16/11
f 24/20/12 22/18/11 21/17/11
f 21/17/11 23/19/12 24/20/12
f 2/24/1 24/22/12 23/21/12
f 23/21/12 1/23/1 2/24/1

